<mxfile host="app.diagrams.net" modified="2022-10-23T02:01:40.793Z" agent="5.0 (Windows NT 10.0; Win64; x64) AppleWebKit/537.36 (KHTML, like Gecko) Chrome/106.0.0.0 Safari/537.36" etag="XVfmUuaOeE76H6jq2VX6" version="20.5.1" type="github">
  <diagram id="WG5AgpK_AA3zrsD1aL79" name="Page-1">
    <mxGraphModel dx="1422" dy="758" grid="1" gridSize="10" guides="1" tooltips="1" connect="1" arrows="1" fold="1" page="1" pageScale="1" pageWidth="1700" pageHeight="1100" math="0" shadow="0">
      <root>
        <mxCell id="0" />
        <mxCell id="1" parent="0" />
        <mxCell id="WH3Cvk7K77LfLdCeQXxR-1" value="&lt;font style=&quot;font-size: 18px;&quot;&gt;COURSE&lt;/font&gt;" style="text;html=1;strokeColor=none;fillColor=none;align=center;verticalAlign=middle;whiteSpace=wrap;rounded=0;" parent="1" vertex="1">
          <mxGeometry x="170" y="40" width="60" height="30" as="geometry" />
        </mxCell>
        <mxCell id="WH3Cvk7K77LfLdCeQXxR-4" value="PROFESSOR" style="text;html=1;strokeColor=none;fillColor=none;align=center;verticalAlign=middle;whiteSpace=wrap;rounded=0;fontSize=18;" parent="1" vertex="1">
          <mxGeometry x="190" y="140" width="60" height="30" as="geometry" />
        </mxCell>
        <mxCell id="WH3Cvk7K77LfLdCeQXxR-5" value="STUDENT" style="text;html=1;strokeColor=none;fillColor=none;align=center;verticalAlign=middle;whiteSpace=wrap;rounded=0;fontSize=18;" parent="1" vertex="1">
          <mxGeometry x="170" y="230" width="60" height="30" as="geometry" />
        </mxCell>
        <mxCell id="WH3Cvk7K77LfLdCeQXxR-6" value="SECTION" style="text;html=1;strokeColor=none;fillColor=none;align=center;verticalAlign=middle;whiteSpace=wrap;rounded=0;fontSize=18;" parent="1" vertex="1">
          <mxGeometry x="170" y="320" width="60" height="30" as="geometry" />
        </mxCell>
        <mxCell id="WH3Cvk7K77LfLdCeQXxR-7" value="&lt;font style=&quot;font-size: 12px;&quot;&gt;&lt;u&gt;Number&lt;/u&gt;&lt;/font&gt;" style="rounded=0;whiteSpace=wrap;html=1;fontSize=18;" parent="1" vertex="1">
          <mxGeometry x="190" y="70" width="70" height="20" as="geometry" />
        </mxCell>
        <mxCell id="WH3Cvk7K77LfLdCeQXxR-9" value="&lt;u&gt;Number&lt;/u&gt;" style="rounded=0;whiteSpace=wrap;html=1;fontSize=12;" parent="1" vertex="1">
          <mxGeometry x="190" y="260" width="60" height="20" as="geometry" />
        </mxCell>
        <mxCell id="WH3Cvk7K77LfLdCeQXxR-10" value="Name" style="rounded=0;whiteSpace=wrap;html=1;fontSize=12;" parent="1" vertex="1">
          <mxGeometry x="250" y="260" width="70" height="20" as="geometry" />
        </mxCell>
        <mxCell id="WH3Cvk7K77LfLdCeQXxR-11" value="GPA" style="rounded=0;whiteSpace=wrap;html=1;fontSize=12;" parent="1" vertex="1">
          <mxGeometry x="320" y="260" width="60" height="20" as="geometry" />
        </mxCell>
        <mxCell id="WH3Cvk7K77LfLdCeQXxR-15" value="&lt;u&gt;SecNumber&lt;/u&gt;" style="rounded=0;whiteSpace=wrap;html=1;fontSize=12;" parent="1" vertex="1">
          <mxGeometry x="190" y="350" width="70" height="20" as="geometry" />
        </mxCell>
        <mxCell id="WH3Cvk7K77LfLdCeQXxR-16" value="LocationType" style="rounded=0;whiteSpace=wrap;html=1;fontSize=12;" parent="1" vertex="1">
          <mxGeometry x="340" y="350" width="80" height="20" as="geometry" />
        </mxCell>
        <mxCell id="WH3Cvk7K77LfLdCeQXxR-17" value="&lt;u&gt;Profid&lt;/u&gt;" style="rounded=0;whiteSpace=wrap;html=1;fontSize=12;" parent="1" vertex="1">
          <mxGeometry x="190" y="170" width="60" height="20" as="geometry" />
        </mxCell>
        <mxCell id="WH3Cvk7K77LfLdCeQXxR-19" value="Name" style="rounded=0;whiteSpace=wrap;html=1;fontSize=12;" parent="1" vertex="1">
          <mxGeometry x="260" y="70" width="60" height="20" as="geometry" />
        </mxCell>
        <mxCell id="WH3Cvk7K77LfLdCeQXxR-20" value="&lt;u&gt;CNumber&lt;/u&gt;" style="rounded=0;whiteSpace=wrap;html=1;fontSize=12;" parent="1" vertex="1">
          <mxGeometry x="260" y="350" width="80" height="20" as="geometry" />
        </mxCell>
        <mxCell id="WH3Cvk7K77LfLdCeQXxR-21" value="" style="html=1;verticalAlign=bottom;endArrow=block;rounded=0;fontSize=12;exitX=0.5;exitY=1;exitDx=0;exitDy=0;entryX=0.5;entryY=1;entryDx=0;entryDy=0;" parent="1" source="WH3Cvk7K77LfLdCeQXxR-20" target="WH3Cvk7K77LfLdCeQXxR-7" edge="1">
          <mxGeometry x="0.5" y="10" width="80" relative="1" as="geometry">
            <mxPoint x="270" y="420" as="sourcePoint" />
            <mxPoint x="350" y="420" as="targetPoint" />
            <Array as="points">
              <mxPoint x="300" y="400" />
              <mxPoint x="620" y="400" />
              <mxPoint x="620" y="110" />
              <mxPoint x="450" y="110" />
              <mxPoint x="225" y="110" />
            </Array>
            <mxPoint as="offset" />
          </mxGeometry>
        </mxCell>
        <mxCell id="WH3Cvk7K77LfLdCeQXxR-22" value="&lt;u&gt;Profid&lt;/u&gt;" style="rounded=0;whiteSpace=wrap;html=1;fontSize=12;" parent="1" vertex="1">
          <mxGeometry x="320" y="70" width="50" height="20" as="geometry" />
        </mxCell>
        <mxCell id="WH3Cvk7K77LfLdCeQXxR-23" value="" style="html=1;verticalAlign=bottom;endArrow=block;rounded=0;fontSize=12;exitX=0.5;exitY=1;exitDx=0;exitDy=0;entryX=0.5;entryY=1;entryDx=0;entryDy=0;" parent="1" source="WH3Cvk7K77LfLdCeQXxR-22" target="WH3Cvk7K77LfLdCeQXxR-17" edge="1">
          <mxGeometry width="80" relative="1" as="geometry">
            <mxPoint x="190" y="480" as="sourcePoint" />
            <mxPoint x="270" y="480" as="targetPoint" />
            <Array as="points">
              <mxPoint x="345" y="210" />
              <mxPoint x="220" y="210" />
            </Array>
          </mxGeometry>
        </mxCell>
        <mxCell id="WH3Cvk7K77LfLdCeQXxR-24" value="Profid" style="rounded=0;whiteSpace=wrap;html=1;fontSize=12;" parent="1" vertex="1">
          <mxGeometry x="420" y="350" width="50" height="20" as="geometry" />
        </mxCell>
        <mxCell id="WH3Cvk7K77LfLdCeQXxR-25" value="" style="html=1;verticalAlign=bottom;endArrow=block;rounded=0;fontSize=12;exitX=0.5;exitY=1;exitDx=0;exitDy=0;entryX=0.25;entryY=1;entryDx=0;entryDy=0;" parent="1" source="WH3Cvk7K77LfLdCeQXxR-24" target="WH3Cvk7K77LfLdCeQXxR-17" edge="1">
          <mxGeometry x="0.5" y="10" width="80" relative="1" as="geometry">
            <mxPoint x="400" y="470" as="sourcePoint" />
            <mxPoint x="480" y="470" as="targetPoint" />
            <Array as="points">
              <mxPoint x="445" y="390" />
              <mxPoint x="500" y="390" />
              <mxPoint x="500" y="220" />
              <mxPoint x="205" y="220" />
            </Array>
            <mxPoint as="offset" />
          </mxGeometry>
        </mxCell>
        <mxCell id="WH3Cvk7K77LfLdCeQXxR-26" value="&lt;font style=&quot;font-size: 18px;&quot;&gt;REGISTERS&lt;/font&gt;" style="text;html=1;strokeColor=none;fillColor=none;align=center;verticalAlign=middle;whiteSpace=wrap;rounded=0;fontSize=12;" parent="1" vertex="1">
          <mxGeometry x="180" y="440" width="60" height="30" as="geometry" />
        </mxCell>
        <mxCell id="WH3Cvk7K77LfLdCeQXxR-27" value="&lt;font style=&quot;font-size: 12px;&quot;&gt;&lt;u&gt;SecNum&lt;/u&gt;&lt;/font&gt;" style="rounded=0;whiteSpace=wrap;html=1;fontSize=18;" parent="1" vertex="1">
          <mxGeometry x="190" y="480" width="80" height="20" as="geometry" />
        </mxCell>
        <mxCell id="WH3Cvk7K77LfLdCeQXxR-28" value="&lt;u&gt;StuNum&lt;/u&gt;" style="rounded=0;whiteSpace=wrap;html=1;fontSize=12;" parent="1" vertex="1">
          <mxGeometry x="270" y="480" width="60" height="20" as="geometry" />
        </mxCell>
        <mxCell id="WH3Cvk7K77LfLdCeQXxR-30" value="" style="html=1;verticalAlign=bottom;endArrow=block;rounded=0;fontSize=12;exitX=0.5;exitY=1;exitDx=0;exitDy=0;entryX=0.595;entryY=1.192;entryDx=0;entryDy=0;entryPerimeter=0;" parent="1" source="WH3Cvk7K77LfLdCeQXxR-27" target="WH3Cvk7K77LfLdCeQXxR-15" edge="1">
          <mxGeometry x="0.5" y="10" width="80" relative="1" as="geometry">
            <mxPoint x="190" y="560" as="sourcePoint" />
            <mxPoint x="270" y="560" as="targetPoint" />
            <Array as="points">
              <mxPoint x="230" y="530" />
              <mxPoint x="390" y="530" />
              <mxPoint x="390" y="410" />
              <mxPoint x="232" y="410" />
            </Array>
            <mxPoint as="offset" />
          </mxGeometry>
        </mxCell>
        <mxCell id="WH3Cvk7K77LfLdCeQXxR-31" value="" style="html=1;verticalAlign=bottom;endArrow=block;rounded=0;fontSize=12;exitX=0.5;exitY=1;exitDx=0;exitDy=0;entryX=0.5;entryY=1;entryDx=0;entryDy=0;" parent="1" source="WH3Cvk7K77LfLdCeQXxR-28" target="WH3Cvk7K77LfLdCeQXxR-9" edge="1">
          <mxGeometry width="80" relative="1" as="geometry">
            <mxPoint x="310" y="600" as="sourcePoint" />
            <mxPoint x="390" y="600" as="targetPoint" />
            <Array as="points">
              <mxPoint x="300" y="520" />
              <mxPoint x="380" y="520" />
              <mxPoint x="540" y="520" />
              <mxPoint x="540" y="300" />
              <mxPoint x="220" y="300" />
            </Array>
          </mxGeometry>
        </mxCell>
        <mxCell id="WH3Cvk7K77LfLdCeQXxR-32" value="&lt;font size=&quot;3&quot;&gt;ENROLLED&lt;/font&gt;" style="text;html=1;strokeColor=none;fillColor=none;align=center;verticalAlign=middle;whiteSpace=wrap;rounded=0;fontSize=12;" parent="1" vertex="1">
          <mxGeometry x="170" y="570" width="60" height="30" as="geometry" />
        </mxCell>
        <mxCell id="WH3Cvk7K77LfLdCeQXxR-33" value="&lt;font style=&quot;font-size: 12px;&quot;&gt;&lt;u&gt;StuNum&lt;/u&gt;&lt;/font&gt;" style="rounded=0;whiteSpace=wrap;html=1;fontSize=18;" parent="1" vertex="1">
          <mxGeometry x="190" y="600" width="70" height="20" as="geometry" />
        </mxCell>
        <mxCell id="WH3Cvk7K77LfLdCeQXxR-34" value="&lt;u&gt;CNum&lt;/u&gt;" style="rounded=0;whiteSpace=wrap;html=1;fontSize=12;" parent="1" vertex="1">
          <mxGeometry x="260" y="600" width="60" height="20" as="geometry" />
        </mxCell>
        <mxCell id="WH3Cvk7K77LfLdCeQXxR-35" value="Mark" style="rounded=0;whiteSpace=wrap;html=1;fontSize=12;" parent="1" vertex="1">
          <mxGeometry x="320" y="600" width="60" height="20" as="geometry" />
        </mxCell>
        <mxCell id="WH3Cvk7K77LfLdCeQXxR-36" value="" style="html=1;verticalAlign=bottom;endArrow=block;rounded=0;fontSize=12;exitX=0.5;exitY=1;exitDx=0;exitDy=0;entryX=0.357;entryY=1.233;entryDx=0;entryDy=0;entryPerimeter=0;" parent="1" source="WH3Cvk7K77LfLdCeQXxR-33" target="WH3Cvk7K77LfLdCeQXxR-15" edge="1">
          <mxGeometry width="80" relative="1" as="geometry">
            <mxPoint x="230" y="690" as="sourcePoint" />
            <mxPoint x="310" y="690" as="targetPoint" />
            <Array as="points">
              <mxPoint x="225" y="650" />
              <mxPoint x="430" y="650" />
              <mxPoint x="430" y="430" />
              <mxPoint x="215" y="430" />
            </Array>
          </mxGeometry>
        </mxCell>
        <mxCell id="WH3Cvk7K77LfLdCeQXxR-37" value="" style="html=1;verticalAlign=bottom;endArrow=block;rounded=0;fontSize=12;exitX=0.5;exitY=1;exitDx=0;exitDy=0;entryX=0.75;entryY=1;entryDx=0;entryDy=0;" parent="1" source="WH3Cvk7K77LfLdCeQXxR-34" target="WH3Cvk7K77LfLdCeQXxR-7" edge="1">
          <mxGeometry width="80" relative="1" as="geometry">
            <mxPoint x="240" y="710" as="sourcePoint" />
            <mxPoint x="320" y="710" as="targetPoint" />
            <Array as="points">
              <mxPoint x="290" y="640" />
              <mxPoint x="590" y="640" />
              <mxPoint x="590" y="130" />
              <mxPoint x="243" y="130" />
            </Array>
          </mxGeometry>
        </mxCell>
      </root>
    </mxGraphModel>
  </diagram>
</mxfile>
